<?xml version="1.0" encoding="UTF-8" standalone="no"?>
<!-- Created with Inkscape (http://www.inkscape.org/) -->

<svg
   width="299.47021"
   height="544.24341"
   viewBox="0 0 79.234826 143.99773"
   version="1.1"
   id="svg1"
   xml:space="preserve"
   xmlns:xlink="http://www.w3.org/1999/xlink"
   xmlns="http://www.w3.org/2000/svg"
   xmlns:svg="http://www.w3.org/2000/svg"><defs
     id="defs1"><linearGradient
       id="linearGradient3860"><stop
         style="stop-color:#d7e3f5;stop-opacity:1;"
         offset="0"
         id="stop3860" /><stop
         style="stop-color:#d7e3f5;stop-opacity:0;"
         offset="1"
         id="stop3861" /></linearGradient><linearGradient
       id="linearGradient3857"><stop
         style="stop-color:#ff7b6c;stop-opacity:1;"
         offset="0"
         id="stop3858" /><stop
         style="stop-color:#ff4c37;stop-opacity:1;"
         offset="0.56149685"
         id="stop3857" /></linearGradient><linearGradient
       xlink:href="#linearGradient3857"
       id="linearGradient3858"
       x1="2039.3148"
       y1="-72.630043"
       x2="2042.5549"
       y2="-69.465263"
       gradientUnits="userSpaceOnUse" /><linearGradient
       xlink:href="#linearGradient3860"
       id="linearGradient3861"
       x1="1972.3605"
       y1="396.41574"
       x2="1982.4586"
       y2="396.41574"
       gradientUnits="userSpaceOnUse"
       gradientTransform="translate(-0.78545711,0.2909303)" /><linearGradient
       xlink:href="#linearGradient3860"
       id="linearGradient3863"
       gradientUnits="userSpaceOnUse"
       gradientTransform="translate(-0.78545711,0.2909303)"
       x1="1972.3605"
       y1="396.41574"
       x2="1982.4586"
       y2="396.41574" /></defs><g
     id="layer1"
     transform="translate(-2384.189,-597.17536)"><g
       id="g3864"
       transform="translate(109.0403,222.15485)"><path
         style="fill:#e8c97e;fill-opacity:1;stroke-width:2.64583;paint-order:stroke fill markers"
         d="m 2275.1486,489.6099 v 6.53519 l 39.6174,22.87316 v -6.53519 z"
         id="path2899" /><path
         style="fill:#e0b54f;fill-opacity:1;stroke-width:2.64583;paint-order:stroke fill markers"
         d="m 2354.3835,489.6099 -39.6175,22.87316 v 6.53519 l 39.6175,-22.87316 z"
         id="path2900" /><path
         style="fill:#e3bb5d;fill-opacity:1;stroke-width:2.64583;paint-order:stroke fill markers"
         d="m 2275.1486,489.6099 39.6174,-22.87316 39.6175,22.87316 -39.6175,22.87316 z"
         id="path2901" /><path
         style="fill:#6f200d;fill-opacity:0.156825;stroke-width:3.1364;paint-order:stroke fill markers"
         id="path3864"
         d="m 2332.1927,500.52089 a 28.221405,13.815103 0 0 1 -39.623,-2.33469 28.221405,13.815103 0 0 1 4.7652,-19.39673 28.221405,13.815103 0 0 1 39.624,2.33068 28.221405,13.815103 0 0 1 -4.757,19.39722 l -17.4358,-10.86307 z" /><path
         style="fill:#2f2f2f;fill-opacity:1;stroke-width:2.64583;paint-order:stroke fill markers"
         d="m 2312.3049,504.52696 2.4611,1.42091 v -91.49262 l -1.9639,-1.1339 z"
         id="path2924" /><path
         style="fill:#0c0c0c;fill-opacity:1;stroke-width:2.64583;paint-order:stroke fill markers"
         d="m 2317.2271,504.52696 -2.4611,1.42091 v -91.49263 l 1.9639,-1.1339 z"
         id="path2926" /><path
         style="fill:#2f2f2f;fill-opacity:1;stroke-width:2.64583;paint-order:stroke fill markers"
         d="m 2286.4679,489.6099 2.4611,1.42091 16.4817,-81.97687 -1.9639,-1.1339 z"
         id="path2927" /><path
         style="fill:#0c0c0c;fill-opacity:1;stroke-width:2.64583;paint-order:stroke fill markers"
         d="m 2343.0641,489.6099 -2.4611,1.42091 -16.4817,-81.97687 1.9639,-1.1339 z"
         id="path3654" /><path
         style="fill:#0c0c0c;fill-opacity:1;stroke-width:2.64583;paint-order:stroke fill markers"
         d="m 2314.766,463.18524 18.8027,-10.78247 0.024,-3.04992 -18.8262,10.8487 z"
         id="path3835" /><path
         style="fill:#0c0c0c;fill-opacity:1;stroke-width:2.64583;paint-order:stroke fill markers"
         d="m 2315.9965,487.7874 22.6151,-13.00415 0.024,-3.04992 -22.6387,13.07038 z"
         id="path3836" /><path
         style="fill:#0c0c0c;fill-opacity:1;stroke-width:2.64583;paint-order:stroke fill markers"
         d="m 2314.766,434.0608 13.9675,-8.06412 0.024,-3.04991 -13.991,8.13033 z"
         id="path3837" /><path
         style="fill:#2f2f2f;fill-opacity:1;stroke-width:2.64583;paint-order:stroke fill markers"
         d="m 2314.636,463.02154 -18.8027,-10.78248 -0.024,-3.04991 18.8262,10.8487 z"
         id="path3841" /><path
         style="fill:#2f2f2f;fill-opacity:1;stroke-width:2.64583;paint-order:stroke fill markers"
         d="m 2313.2707,487.7874 -22.6151,-13.00415 -0.024,-3.04992 22.6387,13.07038 z"
         id="path3842" /><path
         style="fill:#2f2f2f;fill-opacity:1;stroke-width:2.64583;paint-order:stroke fill markers"
         d="m 2314.5012,434.0608 -13.9675,-8.06412 -0.024,-3.04991 13.991,8.13033 z"
         id="path3843" /><path
         style="fill:#2f2f2f;fill-opacity:1;stroke-width:1.99966;paint-order:stroke fill markers"
         d="m 2314.766,434.0608 -11.3192,-22.87316 -0.01,-6.00555 11.326,23.00356 z"
         id="path3848" /><path
         style="fill:#0c0c0c;fill-opacity:1;stroke-width:1.99966;paint-order:stroke fill markers"
         d="m 2314.7649,434.01468 11.3192,-22.87316 0.01,-6.00555 -11.326,23.00356 z"
         id="path3849" /><path
         style="fill:#2f2f2f;fill-opacity:1;stroke-width:2.64647;paint-order:stroke fill markers"
         d="m 2314.7676,463.13913 -14.2453,-31.83405 -0.013,-8.35831 14.2539,32.01553 z"
         id="path3850" /><path
         style="fill:#0c0c0c;fill-opacity:1;stroke-width:2.62208;paint-order:stroke fill markers"
         d="m 2314.7612,463.13913 13.9839,-31.83405 0.012,-8.35831 -13.9923,32.01553 z"
         id="path3851" /><path
         style="fill:#2f2f2f;fill-opacity:1;stroke-width:3.00832;paint-order:stroke fill markers"
         d="m 2314.7709,488.24092 -18.9447,-30.93066 -0.017,-8.12111 18.9561,31.10699 z"
         id="path3852" /><path
         style="fill:#0c0c0c;fill-opacity:1;stroke-width:2.99144;paint-order:stroke fill markers"
         d="m 2314.7645,488.24092 18.8116,-30.801 0.017,-8.08707 -18.8229,30.97659 z"
         id="path3853" /><path
         id="path3840"
         style="fill:#000000;fill-opacity:1;stroke-width:2.64583;paint-order:stroke fill markers"
         d="m 2314.7662,398.32308 -11.3197,6.53552 11.3197,6.535 11.3192,-6.535 z" /><path
         style="fill:#111111;fill-opacity:1;stroke-width:2.64583;paint-order:stroke fill markers"
         d="m 2314.766,414.45524 -11.3192,-6.5352 -1e-4,-3.06161 11.3193,6.53519 z"
         id="path3839" /><path
         style="fill:#000000;fill-opacity:1;stroke-width:2.64583;paint-order:stroke fill markers"
         d="m 2314.7661,414.45524 11.3192,-6.5352 10e-5,-3.06161 -11.3193,6.53519 z"
         id="path3838" /><g
         id="g3858"
         transform="translate(274.28788,449.61837)"><path
           style="opacity:1;fill:#818797;fill-opacity:1;stroke-width:2.31147;paint-order:stroke fill markers"
           id="path3854"
           d="m 2043.1019,-43.800206 a 4.2491608,2.3661122 0 0 1 -5.9659,-0.399862 4.2491608,2.3661122 0 0 1 0.7175,-3.322079 4.2491608,2.3661122 0 0 1 5.966,0.399177 4.2491608,2.3661122 0 0 1 -0.7162,3.32216 l -2.6253,-1.860517 z" /><path
           style="opacity:1;fill:#a2adc1;fill-opacity:1;stroke-width:2.64583;paint-order:stroke fill markers"
           d="m 2039.0046,-69.0742 h 2.9468 l 0.099,23.71053 -1.5726,0.760677 -1.5117,-0.793473 z"
           id="path3855" /><path
           style="opacity:1;fill:#8b99b2;fill-opacity:1;stroke-width:2.64583;paint-order:stroke fill markers"
           d="m 2040.478,-69.0742 -2e-4,24.471206 1.5726,-0.760677 -0.099,-23.710529 z"
           id="path3856" /><path
           style="opacity:1;fill:url(#linearGradient3858);fill-opacity:1;stroke-width:3.12947;paint-order:stroke fill markers"
           id="path3857"
           d="m 2042.7888,-68.246007 a 3.7426345,3.5553384 0 0 1 -5.2546,-0.600836 3.7426345,3.5553384 0 0 1 0.6319,-4.99178 3.7426345,3.5553384 0 0 1 5.2548,0.599806 3.7426345,3.5553384 0 0 1 -0.6308,4.991903 l -2.3123,-2.795628 z" /></g><g
         id="g3861"
         transform="translate(264.33791,470.20298)"><path
           style="opacity:1;fill:#eef3fa;fill-opacity:1;stroke-width:2.85121;paint-order:stroke fill markers"
           id="path3858"
           d="m 2023.9423,224.66805 a 8.202961,10.133668 0 0 1 -11.5171,-1.71255 8.202961,10.133668 0 0 1 1.3851,-14.22791 8.202961,10.133668 0 0 1 11.5173,1.70961 8.202961,10.133668 0 0 1 -1.3827,14.22826 l -5.0679,-7.96829 z"
           transform="rotate(-6.711315)" /><path
           style="opacity:1;fill:url(#linearGradient3861);fill-opacity:1;stroke-width:2.76264;paint-order:stroke fill markers"
           id="path3859"
           d="m 1979.7419,402.2327 a 5.0490675,7.0254526 0 0 1 -7.0889,-1.18727 5.0490675,7.0254526 0 0 1 0.8525,-9.8639 5.0490675,7.0254526 0 0 1 7.0891,1.18523 5.0490675,7.0254526 0 0 1 -0.851,9.86415 l -3.1195,-5.52424 z"
           transform="matrix(0.97871114,-0.20524254,0.24154745,0.97038901,0,0)" /><path
           style="opacity:1;fill:#dfe9f6;fill-opacity:1;stroke-width:2.64583;paint-order:stroke fill markers"
           d="m 2031.9644,-30.536395 c 6.7582,4.864713 6.3082,15.815977 3.2843,18.235771 0,0 4.2346,-2.16075 3.2002,-10.123586 -0.5894,-4.537583 -4.4277,-7.60794 -6.4845,-8.112185 z"
           id="path3860" /></g><g
         id="g3863"
         transform="matrix(-0.95443273,0.29842615,0.29842615,0.95443273,4277.2588,-124.59081)"><path
           style="opacity:1;fill:#eef3fa;fill-opacity:1;stroke-width:2.85121;paint-order:stroke fill markers"
           id="path3861"
           d="m 2023.9423,224.66805 a 8.202961,10.133668 0 0 1 -11.5171,-1.71255 8.202961,10.133668 0 0 1 1.3851,-14.22791 8.202961,10.133668 0 0 1 11.5173,1.70961 8.202961,10.133668 0 0 1 -1.3827,14.22826 l -5.0679,-7.96829 z"
           transform="rotate(-6.711315)" /><path
           style="opacity:1;fill:url(#linearGradient3863);fill-opacity:1;stroke-width:2.76264;paint-order:stroke fill markers"
           id="path3862"
           d="m 1979.7419,402.2327 a 5.0490675,7.0254526 0 0 1 -7.0889,-1.18727 5.0490675,7.0254526 0 0 1 0.8525,-9.8639 5.0490675,7.0254526 0 0 1 7.0891,1.18523 5.0490675,7.0254526 0 0 1 -0.851,9.86415 l -3.1195,-5.52424 z"
           transform="matrix(0.97871114,-0.20524254,0.24154745,0.97038901,0,0)" /><path
           style="opacity:1;fill:#dfe9f6;fill-opacity:1;stroke-width:2.64583;paint-order:stroke fill markers"
           d="m 2031.9644,-30.536395 c 6.7582,4.864713 6.3082,15.815977 3.2843,18.235771 0,0 4.2346,-2.16075 3.2002,-10.123586 -0.5894,-4.537583 -4.4277,-7.60794 -6.4845,-8.112185 z"
           id="path3863" /></g></g></g></svg>
